#N canvas -7 0 958 998 12;
#X obj 157 26 adc~;
#X obj 169 110 *~;
#X obj 152 168 dac~;
#X obj 228 71 hsl 128 15 0 1 0 0 empty empty empty -2 -8 0 10 #fcfcfc
#000000 #000000 0 1;
#X obj 490 191 vu 15 120 empty empty -1 -8 0 10 #404040 #000000 1 0
;
#X obj 436 38 env~;
#X obj 338 207 vu 15 120 empty empty -1 -8 0 10 #404040 #000000 1 0
;
#X obj 240 146 env~;
#X obj 465 111 - 100;
#X obj 274 176 - 100;
#X connect 0 0 1 0;
#X connect 0 1 1 0;
#X connect 0 1 5 0;
#X connect 1 0 2 0;
#X connect 1 0 2 1;
#X connect 1 0 7 0;
#X connect 3 0 1 1;
#X connect 5 0 8 0;
#X connect 7 0 9 0;
#X connect 8 0 4 0;
#X connect 9 0 6 0;
