#N canvas -7 0 958 998 12;
#X obj 323 275 tabplay~ muestra;
#X obj 305 238 bng 15 250 50 0 empty empty empty 17 7 0 10 #fcfcfc
#000000 #000000;
#X obj 543 246 bng 15 250 50 0 empty empty empty 17 7 0 10 #fcfcfc
#000000 #000000;
#X obj 544 293 openpanel;
#X msg 548 330 read -resize \$1 muestra;
#N canvas 0 50 450 250 (subpatch) 0;
#X array muestra 249036 float 2;
#X coords 0 1 249036 -1 200 140 1 0 0;
#X restore 184 484 graph;
#X obj 550 367 soundfiler;
#X floatatom 571 428 19 0 0 0 - - - 0;
#X obj 300 354 *~;
#X obj 284 406 dac~;
#X floatatom 354 317 5 0 1 0 - - - 0;
#X obj 150 259 tabread4~ muestra;
#X obj 157 188 line~;
#X obj 469 483 expr $f1 / 44100;
#X floatatom 519 546 5 0 0 0 - - - 0;
#X msg 341 193 151250 \, 0 36000;
#X msg 329 168 164892 \, 0 264000;
#X msg 305 143 0 \, 564000 256847;
#X msg 285 118 0 \, 64000 354987;
#X obj 138 54 bng 15 250 50 0 empty empty empty 17 7 0 10 #fcfcfc #000000
#000000;
#X msg 254 92 0 \, 45778 26340;
#X connect 0 0 8 0;
#X connect 1 0 0 0;
#X connect 2 0 3 0;
#X connect 3 0 4 0;
#X connect 4 0 6 0;
#X connect 6 0 7 0;
#X connect 6 0 13 0;
#X connect 8 0 9 0;
#X connect 8 0 9 1;
#X connect 10 0 8 1;
#X connect 11 0 8 0;
#X connect 12 0 11 0;
#X connect 13 0 14 0;
#X connect 15 0 12 0;
#X connect 16 0 12 0;
#X connect 17 0 12 0;
#X connect 18 0 12 0;
#X connect 19 0 20 0;
#X connect 19 0 18 0;
#X connect 19 0 17 0;
#X connect 19 0 16 0;
#X connect 19 0 15 0;
#X connect 20 0 12 0;
