#N canvas -7 0 1920 1007 12;
#X obj 321 204 tabplay~ muestra;
#X obj 322 147 bng 15 250 50 0 empty empty empty 17 7 0 10 #fcfcfc
#000000 #000000;
#X obj 575 198 bng 15 250 50 0 empty empty empty 17 7 0 10 #fcfcfc
#000000 #000000;
#X obj 575 219 openpanel;
#X msg 584 254 read -resize \$1 muestra;
#N canvas 0 50 450 250 (subpatch) 0;
#X array muestra 2.8224e+06 float 2;
#X coords 0 1 2.8224e+06 -1 200 140 1 0 0;
#X restore 215 410 graph;
#X obj 581 293 soundfiler;
#X floatatom 589 346 19 0 0 0 - - - 0;
#X obj 336 255 *~;
#X obj 320 307 dac~;
#X floatatom 402 247 5 0 1 0 - - - 0;
#X obj 181 185 tabread4~ muestra;
#X obj 188 114 line~;
#X obj 556 510 expr $f1 / 44100;
#X floatatom 565 568 5 0 0 0 - - - 0;
#X msg 181 62 0 \, 2.8224e+06 64;
#X connect 0 0 8 0;
#X connect 1 0 0 0;
#X connect 2 0 3 0;
#X connect 3 0 4 0;
#X connect 4 0 6 0;
#X connect 6 0 7 0;
#X connect 6 0 13 0;
#X connect 8 0 9 0;
#X connect 8 0 9 1;
#X connect 10 0 8 1;
#X connect 11 0 8 0;
#X connect 12 0 11 0;
#X connect 13 0 14 0;
#X connect 15 0 12 0;
